<?xml version="1.0" encoding="utf-8" standalone="no"?>
<!DOCTYPE svg PUBLIC "-//W3C//DTD SVG 1.1//EN"
  "http://www.w3.org/Graphics/SVG/1.1/DTD/svg11.dtd">
<svg xmlns:xlink="http://www.w3.org/1999/xlink" width="998.3625pt" height="565.79pt" viewBox="0 0 998.3625 565.79" xmlns="http://www.w3.org/2000/svg" version="1.1">
 <metadata>
  <rdf:RDF xmlns:dc="http://purl.org/dc/elements/1.1/" xmlns:cc="http://creativecommons.org/ns#" xmlns:rdf="http://www.w3.org/1999/02/22-rdf-syntax-ns#">
   <cc:Work>
    <dc:type rdf:resource="http://purl.org/dc/dcmitype/StillImage"/>
    <dc:date>2022-10-25T15:23:17.284925</dc:date>
    <dc:format>image/svg+xml</dc:format>
    <dc:creator>
     <cc:Agent>
      <dc:title>Matplotlib v3.5.1, https://matplotlib.org/</dc:title>
     </cc:Agent>
    </dc:creator>
   </cc:Work>
  </rdf:RDF>
 </metadata>
 <defs>
  <style type="text/css">*{stroke-linejoin: round; stroke-linecap: butt}</style>
 </defs>
 <g id="figure_1">
  <g id="patch_1">
   <path d="M 0 565.79 
L 998.3625 565.79 
L 998.3625 0 
L 0 0 
z
" style="fill: #ffffff"/>
  </g>
  <g id="axes_1">
   <g id="patch_2">
    <path d="M 84.446875 504.038438 
L 977.246875 504.038438 
L 977.246875 14.798438 
L 84.446875 14.798438 
z
" style="fill: #ffffff"/>
   </g>
   <g id="matplotlib.axis_1">
    <g id="xtick_1">
     <g id="line2d_1">
      <path d="M 84.446875 504.038438 
L 84.446875 14.798438 
" clip-path="url(#p0ebf1dcca5)" style="fill: none; stroke-dasharray: 2.96,1.28; stroke-dashoffset: 0; stroke: #808080; stroke-width: 0.8"/>
     </g>
     <g id="line2d_2">
      <defs>
       <path id="md4818905e6" d="M 0 0 
L 0 3.5 
" style="stroke: #000000; stroke-width: 0.8"/>
      </defs>
      <g>
       <use xlink:href="#md4818905e6" x="84.446875" y="504.038438" style="stroke: #000000; stroke-width: 0.8"/>
      </g>
     </g>
     <g id="text_1">
      <!-- 0 -->
      <g transform="translate(77.489063 526.235313)scale(0.2 -0.2)">
       <defs>
        <path id="DejaVuSans-Bold-30" d="M 2944 2338 
Q 2944 3213 2780 3570 
Q 2616 3928 2228 3928 
Q 1841 3928 1675 3570 
Q 1509 3213 1509 2338 
Q 1509 1453 1675 1090 
Q 1841 728 2228 728 
Q 2613 728 2778 1090 
Q 2944 1453 2944 2338 
z
M 4147 2328 
Q 4147 1169 3647 539 
Q 3147 -91 2228 -91 
Q 1306 -91 806 539 
Q 306 1169 306 2328 
Q 306 3491 806 4120 
Q 1306 4750 2228 4750 
Q 3147 4750 3647 4120 
Q 4147 3491 4147 2328 
z
" transform="scale(0.015625)"/>
       </defs>
       <use xlink:href="#DejaVuSans-Bold-30"/>
      </g>
     </g>
    </g>
    <g id="xtick_2">
     <g id="line2d_3">
      <path d="M 263.006875 504.038438 
L 263.006875 14.798438 
" clip-path="url(#p0ebf1dcca5)" style="fill: none; stroke-dasharray: 2.96,1.28; stroke-dashoffset: 0; stroke: #808080; stroke-width: 0.8"/>
     </g>
     <g id="line2d_4">
      <g>
       <use xlink:href="#md4818905e6" x="263.006875" y="504.038438" style="stroke: #000000; stroke-width: 0.8"/>
      </g>
     </g>
     <g id="text_2">
      <!-- 5 -->
      <g transform="translate(256.049062 526.235313)scale(0.2 -0.2)">
       <defs>
        <path id="DejaVuSans-Bold-35" d="M 678 4666 
L 3669 4666 
L 3669 3781 
L 1638 3781 
L 1638 3059 
Q 1775 3097 1914 3117 
Q 2053 3138 2203 3138 
Q 3056 3138 3531 2711 
Q 4006 2284 4006 1522 
Q 4006 766 3489 337 
Q 2972 -91 2053 -91 
Q 1656 -91 1267 -14 
Q 878 63 494 219 
L 494 1166 
Q 875 947 1217 837 
Q 1559 728 1863 728 
Q 2300 728 2551 942 
Q 2803 1156 2803 1522 
Q 2803 1891 2551 2103 
Q 2300 2316 1863 2316 
Q 1603 2316 1309 2248 
Q 1016 2181 678 2041 
L 678 4666 
z
" transform="scale(0.015625)"/>
       </defs>
       <use xlink:href="#DejaVuSans-Bold-35"/>
      </g>
     </g>
    </g>
    <g id="xtick_3">
     <g id="line2d_5">
      <path d="M 441.566875 504.038438 
L 441.566875 14.798438 
" clip-path="url(#p0ebf1dcca5)" style="fill: none; stroke-dasharray: 2.96,1.28; stroke-dashoffset: 0; stroke: #808080; stroke-width: 0.8"/>
     </g>
     <g id="line2d_6">
      <g>
       <use xlink:href="#md4818905e6" x="441.566875" y="504.038438" style="stroke: #000000; stroke-width: 0.8"/>
      </g>
     </g>
     <g id="text_3">
      <!-- 10 -->
      <g transform="translate(427.65125 526.235313)scale(0.2 -0.2)">
       <defs>
        <path id="DejaVuSans-Bold-31" d="M 750 831 
L 1813 831 
L 1813 3847 
L 722 3622 
L 722 4441 
L 1806 4666 
L 2950 4666 
L 2950 831 
L 4013 831 
L 4013 0 
L 750 0 
L 750 831 
z
" transform="scale(0.015625)"/>
       </defs>
       <use xlink:href="#DejaVuSans-Bold-31"/>
       <use xlink:href="#DejaVuSans-Bold-30" x="69.580078"/>
      </g>
     </g>
    </g>
    <g id="xtick_4">
     <g id="line2d_7">
      <path d="M 620.126875 504.038438 
L 620.126875 14.798438 
" clip-path="url(#p0ebf1dcca5)" style="fill: none; stroke-dasharray: 2.96,1.28; stroke-dashoffset: 0; stroke: #808080; stroke-width: 0.8"/>
     </g>
     <g id="line2d_8">
      <g>
       <use xlink:href="#md4818905e6" x="620.126875" y="504.038438" style="stroke: #000000; stroke-width: 0.8"/>
      </g>
     </g>
     <g id="text_4">
      <!-- 15 -->
      <g transform="translate(606.21125 526.235313)scale(0.2 -0.2)">
       <use xlink:href="#DejaVuSans-Bold-31"/>
       <use xlink:href="#DejaVuSans-Bold-35" x="69.580078"/>
      </g>
     </g>
    </g>
    <g id="xtick_5">
     <g id="line2d_9">
      <path d="M 798.686875 504.038438 
L 798.686875 14.798438 
" clip-path="url(#p0ebf1dcca5)" style="fill: none; stroke-dasharray: 2.96,1.28; stroke-dashoffset: 0; stroke: #808080; stroke-width: 0.8"/>
     </g>
     <g id="line2d_10">
      <g>
       <use xlink:href="#md4818905e6" x="798.686875" y="504.038438" style="stroke: #000000; stroke-width: 0.8"/>
      </g>
     </g>
     <g id="text_5">
      <!-- 20 -->
      <g transform="translate(784.77125 526.235313)scale(0.2 -0.2)">
       <defs>
        <path id="DejaVuSans-Bold-32" d="M 1844 884 
L 3897 884 
L 3897 0 
L 506 0 
L 506 884 
L 2209 2388 
Q 2438 2594 2547 2791 
Q 2656 2988 2656 3200 
Q 2656 3528 2436 3728 
Q 2216 3928 1850 3928 
Q 1569 3928 1234 3808 
Q 900 3688 519 3450 
L 519 4475 
Q 925 4609 1322 4679 
Q 1719 4750 2100 4750 
Q 2938 4750 3402 4381 
Q 3866 4013 3866 3353 
Q 3866 2972 3669 2642 
Q 3472 2313 2841 1759 
L 1844 884 
z
" transform="scale(0.015625)"/>
       </defs>
       <use xlink:href="#DejaVuSans-Bold-32"/>
       <use xlink:href="#DejaVuSans-Bold-30" x="69.580078"/>
      </g>
     </g>
    </g>
    <g id="xtick_6">
     <g id="line2d_11">
      <path d="M 977.246875 504.038438 
L 977.246875 14.798438 
" clip-path="url(#p0ebf1dcca5)" style="fill: none; stroke-dasharray: 2.96,1.28; stroke-dashoffset: 0; stroke: #808080; stroke-width: 0.8"/>
     </g>
     <g id="line2d_12">
      <g>
       <use xlink:href="#md4818905e6" x="977.246875" y="504.038438" style="stroke: #000000; stroke-width: 0.8"/>
      </g>
     </g>
     <g id="text_6">
      <!-- 25 -->
      <g transform="translate(963.33125 526.235313)scale(0.2 -0.2)">
       <use xlink:href="#DejaVuSans-Bold-32"/>
       <use xlink:href="#DejaVuSans-Bold-35" x="69.580078"/>
      </g>
     </g>
    </g>
    <g id="text_7">
     <!-- $Distancia[mm]$ -->
     <g transform="translate(427.721875 553.390781)scale(0.25 -0.25)">
      <defs>
       <path id="DejaVuSans-BoldOblique-44" d="M 2075 3756 
L 1516 909 
L 1947 909 
Q 2788 909 3278 1381 
Q 3769 1853 3769 2656 
Q 3769 3200 3448 3478 
Q 3128 3756 2497 3756 
L 2075 3756 
z
M 1044 4666 
L 2309 4666 
Q 3216 4666 3669 4558 
Q 4122 4450 4422 4197 
Q 4725 3944 4878 3583 
Q 5031 3222 5031 2766 
Q 5031 2131 4770 1570 
Q 4509 1009 4038 628 
Q 3625 288 3079 144 
Q 2534 0 1403 0 
L 134 0 
L 1044 4666 
z
" transform="scale(0.015625)"/>
       <path id="DejaVuSans-BoldOblique-69" d="M 878 3500 
L 2003 3500 
L 1319 0 
L 197 0 
L 878 3500 
z
M 1141 4863 
L 2266 4863 
L 2088 3950 
L 959 3950 
L 1141 4863 
z
" transform="scale(0.015625)"/>
       <path id="DejaVuSans-BoldOblique-73" d="M 3584 3391 
L 3419 2522 
Q 3091 2678 2766 2759 
Q 2441 2841 2150 2841 
Q 1819 2841 1639 2755 
Q 1459 2669 1459 2509 
Q 1459 2416 1559 2359 
Q 1659 2303 1953 2241 
L 2156 2203 
Q 2834 2059 3106 1832 
Q 3378 1606 3378 1203 
Q 3378 594 2900 251 
Q 2422 -91 1563 -91 
Q 1203 -91 828 -34 
Q 453 22 63 134 
L 231 1013 
Q 534 834 879 743 
Q 1225 653 1588 653 
Q 1941 653 2119 737 
Q 2297 822 2297 984 
Q 2297 1097 2197 1159 
Q 2097 1222 1784 1288 
L 1581 1325 
Q 981 1450 725 1694 
Q 469 1938 469 2369 
Q 469 2953 911 3268 
Q 1353 3584 2175 3584 
Q 2534 3584 2882 3536 
Q 3231 3488 3584 3391 
z
" transform="scale(0.015625)"/>
       <path id="DejaVuSans-BoldOblique-74" d="M 2303 4494 
L 2113 3500 
L 3256 3500 
L 3097 2700 
L 1953 2700 
L 1666 1219 
Q 1653 1169 1648 1134 
Q 1644 1100 1644 1069 
Q 1644 925 1739 862 
Q 1834 800 2059 800 
L 2638 800 
L 2478 0 
L 1538 0 
Q 1031 0 765 212 
Q 500 425 500 825 
Q 500 913 509 1013 
Q 519 1113 538 1216 
L 825 2700 
L 275 2700 
L 428 3500 
L 984 3500 
L 1178 4494 
L 2303 4494 
z
" transform="scale(0.015625)"/>
       <path id="DejaVuSans-BoldOblique-61" d="M 2106 1575 
Q 1688 1575 1473 1445 
Q 1259 1316 1259 1063 
Q 1259 872 1386 762 
Q 1513 653 1734 653 
Q 2078 653 2309 861 
Q 2541 1069 2619 1447 
L 2644 1575 
L 2106 1575 
z
M 3853 1997 
L 3463 0 
L 2344 0 
L 2438 519 
Q 2163 206 1856 57 
Q 1550 -91 1191 -91 
Q 694 -91 401 167 
Q 109 425 109 863 
Q 109 1531 626 1886 
Q 1144 2241 2119 2241 
L 2778 2241 
L 2791 2328 
Q 2800 2372 2801 2390 
Q 2803 2409 2803 2425 
Q 2803 2631 2608 2736 
Q 2413 2841 2028 2841 
Q 1681 2841 1356 2769 
Q 1031 2697 728 2553 
L 897 3406 
Q 1247 3494 1614 3539 
Q 1981 3584 2375 3584 
Q 3153 3584 3531 3317 
Q 3909 3050 3909 2503 
Q 3909 2397 3895 2270 
Q 3881 2144 3853 1997 
z
" transform="scale(0.015625)"/>
       <path id="DejaVuSans-BoldOblique-6e" d="M 4128 2131 
L 3713 0 
L 2591 0 
L 2944 1825 
Q 2981 2003 3001 2126 
Q 3022 2250 3022 2322 
Q 3022 2522 2911 2631 
Q 2800 2741 2597 2741 
Q 2250 2741 2001 2470 
Q 1753 2200 1656 1722 
L 1319 0 
L 197 0 
L 878 3500 
L 2003 3500 
L 1900 2988 
Q 2209 3291 2521 3437 
Q 2834 3584 3175 3584 
Q 3659 3584 3921 3331 
Q 4184 3078 4184 2619 
Q 4184 2519 4170 2397 
Q 4156 2275 4128 2131 
z
" transform="scale(0.015625)"/>
       <path id="DejaVuSans-BoldOblique-63" d="M 3719 3391 
L 3541 2478 
Q 3316 2628 3097 2706 
Q 2878 2784 2669 2784 
Q 2122 2784 1775 2417 
Q 1428 2050 1428 1478 
Q 1428 1113 1643 911 
Q 1859 709 2253 709 
Q 2516 709 2769 787 
Q 3022 866 3250 1019 
L 3078 103 
Q 2800 6 2519 -42 
Q 2238 -91 1953 -91 
Q 1128 -91 683 279 
Q 238 650 238 1331 
Q 238 1759 402 2162 
Q 566 2566 872 2888 
Q 1213 3241 1653 3412 
Q 2094 3584 2669 3584 
Q 2934 3584 3196 3536 
Q 3459 3488 3719 3391 
z
" transform="scale(0.015625)"/>
       <path id="DejaVuSans-Bold-5b" d="M 550 4863 
L 2491 4863 
L 2491 4159 
L 1613 4159 
L 1613 -141 
L 2491 -141 
L 2491 -844 
L 550 -844 
L 550 4863 
z
" transform="scale(0.015625)"/>
       <path id="DejaVuSans-BoldOblique-6d" d="M 4013 2919 
Q 4272 3241 4601 3412 
Q 4931 3584 5288 3584 
Q 5756 3584 6026 3326 
Q 6297 3069 6297 2619 
Q 6297 2525 6283 2404 
Q 6269 2284 6241 2131 
L 5825 0 
L 4697 0 
L 5050 1825 
L 5059 1872 
Q 5141 2259 5141 2369 
Q 5141 2541 5042 2641 
Q 4944 2741 4775 2741 
Q 4453 2741 4229 2477 
Q 4006 2213 3909 1722 
L 3572 0 
L 2444 0 
L 2803 1825 
Q 2850 2059 2869 2179 
Q 2888 2300 2888 2369 
Q 2888 2544 2791 2642 
Q 2694 2741 2522 2741 
Q 2213 2741 1980 2467 
Q 1747 2194 1656 1722 
L 1319 0 
L 197 0 
L 878 3500 
L 2003 3500 
L 1900 2988 
Q 2163 3284 2459 3434 
Q 2756 3584 3078 3584 
Q 3441 3584 3700 3398 
Q 3959 3213 4013 2919 
z
" transform="scale(0.015625)"/>
       <path id="DejaVuSans-Bold-5d" d="M 2375 -844 
L 434 -844 
L 434 -141 
L 1313 -141 
L 1313 4159 
L 434 4159 
L 434 4863 
L 2375 4863 
L 2375 -844 
z
" transform="scale(0.015625)"/>
      </defs>
      <use xlink:href="#DejaVuSans-BoldOblique-44" transform="translate(0 0.015625)"/>
      <use xlink:href="#DejaVuSans-BoldOblique-69" transform="translate(83.007812 0.015625)"/>
      <use xlink:href="#DejaVuSans-BoldOblique-73" transform="translate(117.285156 0.015625)"/>
      <use xlink:href="#DejaVuSans-BoldOblique-74" transform="translate(176.806641 0.015625)"/>
      <use xlink:href="#DejaVuSans-BoldOblique-61" transform="translate(224.609375 0.015625)"/>
      <use xlink:href="#DejaVuSans-BoldOblique-6e" transform="translate(292.089844 0.015625)"/>
      <use xlink:href="#DejaVuSans-BoldOblique-63" transform="translate(363.28125 0.015625)"/>
      <use xlink:href="#DejaVuSans-BoldOblique-69" transform="translate(422.558594 0.015625)"/>
      <use xlink:href="#DejaVuSans-BoldOblique-61" transform="translate(456.835938 0.015625)"/>
      <use xlink:href="#DejaVuSans-Bold-5b" transform="translate(524.316406 0.015625)"/>
      <use xlink:href="#DejaVuSans-BoldOblique-6d" transform="translate(570.019531 0.015625)"/>
      <use xlink:href="#DejaVuSans-BoldOblique-6d" transform="translate(674.21875 0.015625)"/>
      <use xlink:href="#DejaVuSans-Bold-5d" transform="translate(778.417969 0.015625)"/>
     </g>
    </g>
   </g>
   <g id="matplotlib.axis_2">
    <g id="ytick_1">
     <g id="line2d_13">
      <path d="M 84.446875 504.038438 
L 977.246875 504.038438 
" clip-path="url(#p0ebf1dcca5)" style="fill: none; stroke-dasharray: 2.96,1.28; stroke-dashoffset: 0; stroke: #808080; stroke-width: 0.8"/>
     </g>
     <g id="line2d_14">
      <defs>
       <path id="me499090150" d="M 0 0 
L -3.5 0 
" style="stroke: #000000; stroke-width: 0.8"/>
      </defs>
      <g>
       <use xlink:href="#me499090150" x="84.446875" y="504.038438" style="stroke: #000000; stroke-width: 0.8"/>
      </g>
     </g>
     <g id="text_8">
      <!-- 0 -->
      <g transform="translate(63.53125 511.636875)scale(0.2 -0.2)">
       <use xlink:href="#DejaVuSans-Bold-30"/>
      </g>
     </g>
    </g>
    <g id="ytick_2">
     <g id="line2d_15">
      <path d="M 84.446875 442.883438 
L 977.246875 442.883438 
" clip-path="url(#p0ebf1dcca5)" style="fill: none; stroke-dasharray: 2.96,1.28; stroke-dashoffset: 0; stroke: #808080; stroke-width: 0.8"/>
     </g>
     <g id="line2d_16">
      <g>
       <use xlink:href="#me499090150" x="84.446875" y="442.883438" style="stroke: #000000; stroke-width: 0.8"/>
      </g>
     </g>
     <g id="text_9">
      <!-- 50 -->
      <g transform="translate(49.615625 450.481875)scale(0.2 -0.2)">
       <use xlink:href="#DejaVuSans-Bold-35"/>
       <use xlink:href="#DejaVuSans-Bold-30" x="69.580078"/>
      </g>
     </g>
    </g>
    <g id="ytick_3">
     <g id="line2d_17">
      <path d="M 84.446875 381.728438 
L 977.246875 381.728438 
" clip-path="url(#p0ebf1dcca5)" style="fill: none; stroke-dasharray: 2.96,1.28; stroke-dashoffset: 0; stroke: #808080; stroke-width: 0.8"/>
     </g>
     <g id="line2d_18">
      <g>
       <use xlink:href="#me499090150" x="84.446875" y="381.728438" style="stroke: #000000; stroke-width: 0.8"/>
      </g>
     </g>
     <g id="text_10">
      <!-- 100 -->
      <g transform="translate(35.7 389.326875)scale(0.2 -0.2)">
       <use xlink:href="#DejaVuSans-Bold-31"/>
       <use xlink:href="#DejaVuSans-Bold-30" x="69.580078"/>
       <use xlink:href="#DejaVuSans-Bold-30" x="139.160156"/>
      </g>
     </g>
    </g>
    <g id="ytick_4">
     <g id="line2d_19">
      <path d="M 84.446875 320.573438 
L 977.246875 320.573438 
" clip-path="url(#p0ebf1dcca5)" style="fill: none; stroke-dasharray: 2.96,1.28; stroke-dashoffset: 0; stroke: #808080; stroke-width: 0.8"/>
     </g>
     <g id="line2d_20">
      <g>
       <use xlink:href="#me499090150" x="84.446875" y="320.573438" style="stroke: #000000; stroke-width: 0.8"/>
      </g>
     </g>
     <g id="text_11">
      <!-- 150 -->
      <g transform="translate(35.7 328.171875)scale(0.2 -0.2)">
       <use xlink:href="#DejaVuSans-Bold-31"/>
       <use xlink:href="#DejaVuSans-Bold-35" x="69.580078"/>
       <use xlink:href="#DejaVuSans-Bold-30" x="139.160156"/>
      </g>
     </g>
    </g>
    <g id="ytick_5">
     <g id="line2d_21">
      <path d="M 84.446875 259.418438 
L 977.246875 259.418438 
" clip-path="url(#p0ebf1dcca5)" style="fill: none; stroke-dasharray: 2.96,1.28; stroke-dashoffset: 0; stroke: #808080; stroke-width: 0.8"/>
     </g>
     <g id="line2d_22">
      <g>
       <use xlink:href="#me499090150" x="84.446875" y="259.418438" style="stroke: #000000; stroke-width: 0.8"/>
      </g>
     </g>
     <g id="text_12">
      <!-- 200 -->
      <g transform="translate(35.7 267.016875)scale(0.2 -0.2)">
       <use xlink:href="#DejaVuSans-Bold-32"/>
       <use xlink:href="#DejaVuSans-Bold-30" x="69.580078"/>
       <use xlink:href="#DejaVuSans-Bold-30" x="139.160156"/>
      </g>
     </g>
    </g>
    <g id="ytick_6">
     <g id="line2d_23">
      <path d="M 84.446875 198.263438 
L 977.246875 198.263438 
" clip-path="url(#p0ebf1dcca5)" style="fill: none; stroke-dasharray: 2.96,1.28; stroke-dashoffset: 0; stroke: #808080; stroke-width: 0.8"/>
     </g>
     <g id="line2d_24">
      <g>
       <use xlink:href="#me499090150" x="84.446875" y="198.263438" style="stroke: #000000; stroke-width: 0.8"/>
      </g>
     </g>
     <g id="text_13">
      <!-- 250 -->
      <g transform="translate(35.7 205.861875)scale(0.2 -0.2)">
       <use xlink:href="#DejaVuSans-Bold-32"/>
       <use xlink:href="#DejaVuSans-Bold-35" x="69.580078"/>
       <use xlink:href="#DejaVuSans-Bold-30" x="139.160156"/>
      </g>
     </g>
    </g>
    <g id="ytick_7">
     <g id="line2d_25">
      <path d="M 84.446875 137.108438 
L 977.246875 137.108438 
" clip-path="url(#p0ebf1dcca5)" style="fill: none; stroke-dasharray: 2.96,1.28; stroke-dashoffset: 0; stroke: #808080; stroke-width: 0.8"/>
     </g>
     <g id="line2d_26">
      <g>
       <use xlink:href="#me499090150" x="84.446875" y="137.108438" style="stroke: #000000; stroke-width: 0.8"/>
      </g>
     </g>
     <g id="text_14">
      <!-- 300 -->
      <g transform="translate(35.7 144.706875)scale(0.2 -0.2)">
       <defs>
        <path id="DejaVuSans-Bold-33" d="M 2981 2516 
Q 3453 2394 3698 2092 
Q 3944 1791 3944 1325 
Q 3944 631 3412 270 
Q 2881 -91 1863 -91 
Q 1503 -91 1142 -33 
Q 781 25 428 141 
L 428 1069 
Q 766 900 1098 814 
Q 1431 728 1753 728 
Q 2231 728 2486 893 
Q 2741 1059 2741 1369 
Q 2741 1688 2480 1852 
Q 2219 2016 1709 2016 
L 1228 2016 
L 1228 2791 
L 1734 2791 
Q 2188 2791 2409 2933 
Q 2631 3075 2631 3366 
Q 2631 3634 2415 3781 
Q 2200 3928 1806 3928 
Q 1516 3928 1219 3862 
Q 922 3797 628 3669 
L 628 4550 
Q 984 4650 1334 4700 
Q 1684 4750 2022 4750 
Q 2931 4750 3382 4451 
Q 3834 4153 3834 3553 
Q 3834 3144 3618 2883 
Q 3403 2622 2981 2516 
z
" transform="scale(0.015625)"/>
       </defs>
       <use xlink:href="#DejaVuSans-Bold-33"/>
       <use xlink:href="#DejaVuSans-Bold-30" x="69.580078"/>
       <use xlink:href="#DejaVuSans-Bold-30" x="139.160156"/>
      </g>
     </g>
    </g>
    <g id="ytick_8">
     <g id="line2d_27">
      <path d="M 84.446875 75.953438 
L 977.246875 75.953438 
" clip-path="url(#p0ebf1dcca5)" style="fill: none; stroke-dasharray: 2.96,1.28; stroke-dashoffset: 0; stroke: #808080; stroke-width: 0.8"/>
     </g>
     <g id="line2d_28">
      <g>
       <use xlink:href="#me499090150" x="84.446875" y="75.953438" style="stroke: #000000; stroke-width: 0.8"/>
      </g>
     </g>
     <g id="text_15">
      <!-- 350 -->
      <g transform="translate(35.7 83.551875)scale(0.2 -0.2)">
       <use xlink:href="#DejaVuSans-Bold-33"/>
       <use xlink:href="#DejaVuSans-Bold-35" x="69.580078"/>
       <use xlink:href="#DejaVuSans-Bold-30" x="139.160156"/>
      </g>
     </g>
    </g>
    <g id="ytick_9">
     <g id="line2d_29">
      <path d="M 84.446875 14.798438 
L 977.246875 14.798438 
" clip-path="url(#p0ebf1dcca5)" style="fill: none; stroke-dasharray: 2.96,1.28; stroke-dashoffset: 0; stroke: #808080; stroke-width: 0.8"/>
     </g>
     <g id="line2d_30">
      <g>
       <use xlink:href="#me499090150" x="84.446875" y="14.798438" style="stroke: #000000; stroke-width: 0.8"/>
      </g>
     </g>
     <g id="text_16">
      <!-- 400 -->
      <g transform="translate(35.7 22.396875)scale(0.2 -0.2)">
       <defs>
        <path id="DejaVuSans-Bold-34" d="M 2356 3675 
L 1038 1722 
L 2356 1722 
L 2356 3675 
z
M 2156 4666 
L 3494 4666 
L 3494 1722 
L 4159 1722 
L 4159 850 
L 3494 850 
L 3494 0 
L 2356 0 
L 2356 850 
L 288 850 
L 288 1881 
L 2156 4666 
z
" transform="scale(0.015625)"/>
       </defs>
       <use xlink:href="#DejaVuSans-Bold-34"/>
       <use xlink:href="#DejaVuSans-Bold-30" x="69.580078"/>
       <use xlink:href="#DejaVuSans-Bold-30" x="139.160156"/>
      </g>
     </g>
    </g>
    <g id="text_17">
     <!-- $Campo\ Magnetico[A/m]$ -->
     <g transform="translate(26.2 424.168438)rotate(-90)scale(0.25 -0.25)">
      <defs>
       <path id="DejaVuSans-BoldOblique-43" d="M 3878 219 
Q 3447 66 3050 -12 
Q 2653 -91 2297 -91 
Q 1356 -91 793 425 
Q 231 941 231 1791 
Q 231 2350 409 2845 
Q 588 3341 934 3750 
Q 1344 4231 1920 4490 
Q 2497 4750 3163 4750 
Q 3525 4750 3890 4664 
Q 4256 4578 4634 4403 
L 4441 3438 
Q 4141 3666 3837 3772 
Q 3534 3878 3188 3878 
Q 2466 3878 1978 3322 
Q 1491 2766 1491 1931 
Q 1491 1394 1791 1087 
Q 2091 781 2619 781 
Q 2934 781 3289 895 
Q 3644 1009 4084 1253 
L 3878 219 
z
" transform="scale(0.015625)"/>
       <path id="DejaVuSans-BoldOblique-70" d="M 1422 506 
L 1063 -1331 
L -63 -1331 
L 878 3500 
L 2003 3500 
L 1900 2988 
Q 2156 3294 2437 3439 
Q 2719 3584 3053 3584 
Q 3644 3584 3987 3209 
Q 4331 2834 4331 2188 
Q 4331 1784 4211 1403 
Q 4091 1022 3866 709 
Q 3581 316 3223 112 
Q 2866 -91 2456 -91 
Q 2097 -91 1845 54 
Q 1594 200 1422 506 
z
M 2597 2772 
Q 2166 2772 1892 2373 
Q 1619 1975 1619 1338 
Q 1619 1050 1773 886 
Q 1928 722 2203 722 
Q 2625 722 2900 1114 
Q 3175 1506 3175 2119 
Q 3175 2438 3026 2605 
Q 2878 2772 2597 2772 
z
" transform="scale(0.015625)"/>
       <path id="DejaVuSans-BoldOblique-6f" d="M 2400 2784 
Q 1966 2784 1684 2390 
Q 1403 1997 1403 1388 
Q 1403 1056 1554 882 
Q 1706 709 1997 709 
Q 2431 709 2712 1104 
Q 2994 1500 2994 2113 
Q 2994 2441 2842 2612 
Q 2691 2784 2400 2784 
z
M 2491 3584 
Q 3272 3584 3719 3187 
Q 4166 2791 4166 2106 
Q 4166 1709 4025 1336 
Q 3884 963 3616 653 
Q 3297 284 2862 96 
Q 2428 -91 1894 -91 
Q 1122 -91 676 306 
Q 231 703 231 1388 
Q 231 1781 375 2157 
Q 519 2534 788 2847 
Q 1100 3209 1533 3396 
Q 1966 3584 2491 3584 
z
" transform="scale(0.015625)"/>
       <path id="DejaVuSans-BoldOblique-4d" d="M 1044 4666 
L 2522 4666 
L 3122 2188 
L 4697 4666 
L 6234 4666 
L 5325 0 
L 4184 0 
L 4850 3444 
L 3231 897 
L 2584 897 
L 1941 3444 
L 1275 0 
L 134 0 
L 1044 4666 
z
" transform="scale(0.015625)"/>
       <path id="DejaVuSans-BoldOblique-67" d="M 2675 594 
Q 2406 288 2128 144 
Q 1850 0 1522 0 
Q 928 0 583 383 
Q 238 766 238 1428 
Q 238 1781 358 2136 
Q 478 2491 703 2803 
Q 978 3181 1334 3379 
Q 1691 3578 2100 3578 
Q 2469 3578 2720 3434 
Q 2972 3291 3144 2981 
L 3238 3500 
L 4366 3500 
L 3775 459 
Q 3594 -481 3000 -931 
Q 2406 -1381 1350 -1381 
Q 1025 -1381 723 -1331 
Q 422 -1281 128 -1178 
L 294 -306 
Q 559 -475 825 -558 
Q 1091 -641 1369 -641 
Q 1925 -641 2223 -403 
Q 2522 -166 2625 353 
L 2675 594 
z
M 2363 2772 
Q 1950 2772 1676 2400 
Q 1403 2028 1403 1466 
Q 1403 1147 1550 980 
Q 1697 813 1978 813 
Q 2388 813 2663 1183 
Q 2938 1553 2938 2106 
Q 2938 2431 2791 2601 
Q 2644 2772 2363 2772 
z
" transform="scale(0.015625)"/>
       <path id="DejaVuSans-BoldOblique-65" d="M 4025 1619 
L 3988 1441 
L 1369 1441 
Q 1369 1422 1366 1386 
Q 1363 1350 1363 1331 
Q 1363 991 1567 822 
Q 1772 653 2181 653 
Q 2534 653 2926 759 
Q 3319 866 3750 1075 
L 3578 206 
Q 3169 56 2764 -17 
Q 2359 -91 1941 -91 
Q 1122 -91 676 287 
Q 231 666 231 1356 
Q 231 1756 373 2132 
Q 516 2509 788 2822 
Q 1109 3197 1557 3390 
Q 2006 3584 2553 3584 
Q 3263 3584 3680 3206 
Q 4097 2828 4097 2188 
Q 4097 2063 4080 1923 
Q 4063 1784 4025 1619 
z
M 2969 2131 
Q 2978 2172 2983 2214 
Q 2988 2256 2988 2297 
Q 2988 2547 2838 2694 
Q 2688 2841 2431 2841 
Q 2103 2841 1873 2661 
Q 1644 2481 1522 2131 
L 2969 2131 
z
" transform="scale(0.015625)"/>
       <path id="DejaVuSans-BoldOblique-41" d="M 3144 850 
L 1281 850 
L 819 0 
L -416 0 
L 2222 4666 
L 3597 4666 
L 4422 0 
L 3278 0 
L 3144 850 
z
M 1734 1697 
L 2988 1697 
L 2706 3494 
L 1734 1697 
z
" transform="scale(0.015625)"/>
       <path id="DejaVuSans-Bold-2f" d="M 1644 4666 
L 2338 4666 
L 691 -594 
L 0 -594 
L 1644 4666 
z
" transform="scale(0.015625)"/>
      </defs>
      <use xlink:href="#DejaVuSans-BoldOblique-43" transform="translate(0 0.015625)"/>
      <use xlink:href="#DejaVuSans-BoldOblique-61" transform="translate(73.388672 0.015625)"/>
      <use xlink:href="#DejaVuSans-BoldOblique-6d" transform="translate(140.869141 0.015625)"/>
      <use xlink:href="#DejaVuSans-BoldOblique-70" transform="translate(245.068359 0.015625)"/>
      <use xlink:href="#DejaVuSans-BoldOblique-6f" transform="translate(316.650391 0.015625)"/>
      <use xlink:href="#DejaVuSans-BoldOblique-4d" transform="translate(420.084288 0.015625)"/>
      <use xlink:href="#DejaVuSans-BoldOblique-61" transform="translate(519.596007 0.015625)"/>
      <use xlink:href="#DejaVuSans-BoldOblique-67" transform="translate(587.076476 0.015625)"/>
      <use xlink:href="#DejaVuSans-BoldOblique-6e" transform="translate(658.658507 0.015625)"/>
      <use xlink:href="#DejaVuSans-BoldOblique-65" transform="translate(729.849913 0.015625)"/>
      <use xlink:href="#DejaVuSans-BoldOblique-74" transform="translate(797.672179 0.015625)"/>
      <use xlink:href="#DejaVuSans-BoldOblique-69" transform="translate(845.474913 0.015625)"/>
      <use xlink:href="#DejaVuSans-BoldOblique-63" transform="translate(879.752257 0.015625)"/>
      <use xlink:href="#DejaVuSans-BoldOblique-6f" transform="translate(939.029601 0.015625)"/>
      <use xlink:href="#DejaVuSans-Bold-5b" transform="translate(1007.730772 0.015625)"/>
      <use xlink:href="#DejaVuSans-BoldOblique-41" transform="translate(1053.433897 0.015625)"/>
      <use xlink:href="#DejaVuSans-Bold-2f" transform="translate(1130.826476 0.015625)"/>
      <use xlink:href="#DejaVuSans-BoldOblique-6d" transform="translate(1167.349913 0.015625)"/>
      <use xlink:href="#DejaVuSans-Bold-5d" transform="translate(1271.549132 0.015625)"/>
     </g>
    </g>
   </g>
   <g id="line2d_31">
    <path d="M 84.446875 504.038438 
L 87.571988 504.031637 
L 208.469197 503.692886 
L 322.937604 503.180522 
L 406.244175 502.595517 
L 478.211051 501.826368 
L 514.1052 501.290361 
L 585.179187 499.753718 
L 611.608709 498.92527 
L 633.841654 498.055459 
L 670.985848 496.127627 
L 686.78999 495.069644 
L 700.004752 493.990268 
L 712.326624 492.79803 
L 731.255877 490.635546 
L 755.096019 486.831085 
L 772.685939 483.053335 
L 778.489718 481.390044 
L 782.775586 480.097667 
L 790.007991 477.65228 
L 796.436794 475.177447 
L 798.847597 474.122707 
L 807.597912 469.893698 
L 811.79449 467.458498 
L 813.133825 466.857581 
L 819.919784 462.145103 
L 822.152005 460.550116 
L 823.40205 459.565919 
L 824.919964 458.131824 
L 826.79503 456.414741 
L 828.223652 455.165755 
L 834.920324 448.819833 
L 836.706102 446.687474 
L 845.188549 435.112156 
L 847.331483 431.749707 
L 851.438774 423.896071 
L 852.867397 421.120722 
L 857.242556 411.670139 
L 858.224732 409.134861 
L 864.296379 391.896886 
L 868.046514 379.519488 
L 870.100161 371.528136 
L 871.88594 364.96806 
L 873.135985 359.800128 
L 875.100341 350.830465 
L 878.761186 332.860495 
L 880.546964 324.861251 
L 882.600611 314.183402 
L 884.118521 306.202954 
L 887.243636 288.337023 
L 889.207992 276.687055 
L 891.172348 265.22351 
L 892.958127 258.738816 
L 898.136885 231.011327 
L 899.476217 223.564791 
L 901.976307 212.874796 
L 904.297819 204.531265 
L 906.083598 197.30957 
L 907.422933 192.089609 
L 908.851556 186.698501 
L 909.833733 183.159417 
L 913.941023 170.801643 
L 914.833913 168.294134 
L 919.923383 155.887007 
L 926.798629 142.465488 
L 930.191608 136.897453 
L 930.99521 135.870313 
L 939.120501 126.048509 
L 940.816992 124.48693 
L 943.942103 121.820098 
L 945.460017 120.546784 
L 947.245795 119.285718 
L 949.210152 117.79227 
L 954.924643 114.571029 
L 958.4962 113.076072 
L 961.710602 111.80766 
L 962.960647 111.369511 
L 967.782249 110.283558 
L 970.282339 109.883057 
L 973.853896 109.477023 
L 977.246875 109.365468 
L 977.246875 109.365468 
" clip-path="url(#p0ebf1dcca5)" style="fill: none; stroke: #1f77b4; stroke-width: 1.5; stroke-linecap: square"/>
   </g>
   <g id="line2d_32">
    <path d="M 84.446875 504.038438 
L 977.246875 504.038438 
" clip-path="url(#p0ebf1dcca5)" style="fill: none; stroke: #000000; stroke-width: 2; stroke-linecap: square"/>
   </g>
   <g id="line2d_33">
    <path d="M 84.446875 504.038438 
L 84.446875 14.798438 
" clip-path="url(#p0ebf1dcca5)" style="fill: none; stroke: #000000; stroke-width: 5; stroke-linecap: square"/>
   </g>
   <g id="patch_3">
    <path d="M 84.446875 504.038438 
L 84.446875 14.798438 
" style="fill: none; stroke: #000000; stroke-width: 0.8; stroke-linejoin: miter; stroke-linecap: square"/>
   </g>
   <g id="patch_4">
    <path d="M 977.246875 504.038438 
L 977.246875 14.798438 
" style="fill: none; stroke: #000000; stroke-width: 0.8; stroke-linejoin: miter; stroke-linecap: square"/>
   </g>
   <g id="patch_5">
    <path d="M 84.446875 504.038438 
L 977.246875 504.038438 
" style="fill: none; stroke: #000000; stroke-width: 0.8; stroke-linejoin: miter; stroke-linecap: square"/>
   </g>
   <g id="patch_6">
    <path d="M 84.446875 14.798438 
L 977.246875 14.798438 
" style="fill: none; stroke: #000000; stroke-width: 0.8; stroke-linejoin: miter; stroke-linecap: square"/>
   </g>
   <g id="legend_1">
    <g id="patch_7">
     <path d="M 635.806875 58.558438 
L 966.646875 58.558438 
Q 970.246875 58.558438 970.246875 54.958438 
L 970.246875 29.398438 
Q 970.246875 25.798438 966.646875 25.798438 
L 635.806875 25.798438 
Q 632.206875 25.798438 632.206875 29.398438 
L 632.206875 54.958438 
Q 632.206875 58.558438 635.806875 58.558438 
z
" style="fill: #454545; opacity: 0.5; stroke: #454545; stroke-linejoin: miter"/>
    </g>
    <g id="patch_8">
     <path d="M 633.806875 56.558438 
L 964.646875 56.558438 
Q 968.246875 56.558438 968.246875 52.958438 
L 968.246875 27.398438 
Q 968.246875 23.798438 964.646875 23.798438 
L 633.806875 23.798438 
Q 630.206875 23.798438 630.206875 27.398438 
L 630.206875 52.958438 
Q 630.206875 56.558438 633.806875 56.558438 
z
" style="fill: #e6e6e6; stroke: #cccccc; stroke-linejoin: miter"/>
    </g>
    <g id="line2d_34">
     <path d="M 637.406875 39.098438 
L 655.406875 39.098438 
L 673.406875 39.098438 
" style="fill: none; stroke: #1f77b4; stroke-width: 1.5; stroke-linecap: square"/>
    </g>
    <g id="text_18">
     <!-- $Campo\ Magnético:\ H[A/m]$ -->
     <g transform="translate(687.806875 45.398438)scale(0.18 -0.18)">
      <defs>
       <path id="DejaVuSans-BoldOblique-e9" d="M 4025 1619 
L 3988 1441 
L 1369 1441 
Q 1369 1422 1366 1386 
Q 1363 1350 1363 1331 
Q 1363 991 1567 822 
Q 1772 653 2181 653 
Q 2534 653 2926 759 
Q 3319 866 3750 1075 
L 3578 206 
Q 3169 56 2764 -17 
Q 2359 -91 1941 -91 
Q 1122 -91 676 287 
Q 231 666 231 1356 
Q 231 1756 373 2132 
Q 516 2509 788 2822 
Q 1109 3197 1557 3390 
Q 2006 3584 2553 3584 
Q 3263 3584 3680 3206 
Q 4097 2828 4097 2188 
Q 4097 2063 4080 1923 
Q 4063 1784 4025 1619 
z
M 2969 2131 
Q 2978 2172 2983 2214 
Q 2988 2256 2988 2297 
Q 2988 2547 2838 2694 
Q 2688 2841 2431 2841 
Q 2103 2841 1873 2661 
Q 1644 2481 1522 2131 
L 2969 2131 
z
M 3244 5119 
L 4159 5119 
L 2791 3944 
L 2163 3944 
L 3244 5119 
z
" transform="scale(0.015625)"/>
       <path id="DejaVuSans-Bold-3a" d="M 716 3500 
L 1844 3500 
L 1844 2291 
L 716 2291 
L 716 3500 
z
M 716 1209 
L 1844 1209 
L 1844 0 
L 716 0 
L 716 1209 
z
" transform="scale(0.015625)"/>
       <path id="DejaVuSans-BoldOblique-48" d="M 1044 4666 
L 2247 4666 
L 1900 2888 
L 3675 2888 
L 4019 4666 
L 5222 4666 
L 4313 0 
L 3109 0 
L 3494 1978 
L 1722 1978 
L 1338 0 
L 134 0 
L 1044 4666 
z
" transform="scale(0.015625)"/>
      </defs>
      <use xlink:href="#DejaVuSans-BoldOblique-43" transform="translate(0 0.015625)"/>
      <use xlink:href="#DejaVuSans-BoldOblique-61" transform="translate(73.388672 0.015625)"/>
      <use xlink:href="#DejaVuSans-BoldOblique-6d" transform="translate(140.869141 0.015625)"/>
      <use xlink:href="#DejaVuSans-BoldOblique-70" transform="translate(245.068359 0.015625)"/>
      <use xlink:href="#DejaVuSans-BoldOblique-6f" transform="translate(316.650391 0.015625)"/>
      <use xlink:href="#DejaVuSans-BoldOblique-4d" transform="translate(420.084288 0.015625)"/>
      <use xlink:href="#DejaVuSans-BoldOblique-61" transform="translate(519.596007 0.015625)"/>
      <use xlink:href="#DejaVuSans-BoldOblique-67" transform="translate(587.076476 0.015625)"/>
      <use xlink:href="#DejaVuSans-BoldOblique-6e" transform="translate(658.658507 0.015625)"/>
      <use xlink:href="#DejaVuSans-BoldOblique-e9" transform="translate(729.849913 0.015625)"/>
      <use xlink:href="#DejaVuSans-BoldOblique-74" transform="translate(797.672179 0.015625)"/>
      <use xlink:href="#DejaVuSans-BoldOblique-69" transform="translate(845.474913 0.015625)"/>
      <use xlink:href="#DejaVuSans-BoldOblique-63" transform="translate(879.752257 0.015625)"/>
      <use xlink:href="#DejaVuSans-BoldOblique-6f" transform="translate(939.029601 0.015625)"/>
      <use xlink:href="#DejaVuSans-Bold-3a" transform="translate(1028.570616 0.015625)"/>
      <use xlink:href="#DejaVuSans-BoldOblique-48" transform="translate(1124.13342 0.015625)"/>
      <use xlink:href="#DejaVuSans-Bold-5b" transform="translate(1207.824826 0.015625)"/>
      <use xlink:href="#DejaVuSans-BoldOblique-41" transform="translate(1253.527951 0.015625)"/>
      <use xlink:href="#DejaVuSans-Bold-2f" transform="translate(1330.920529 0.015625)"/>
      <use xlink:href="#DejaVuSans-BoldOblique-6d" transform="translate(1367.443967 0.015625)"/>
      <use xlink:href="#DejaVuSans-Bold-5d" transform="translate(1471.643186 0.015625)"/>
     </g>
    </g>
   </g>
  </g>
 </g>
 <defs>
  <clipPath id="p0ebf1dcca5">
   <rect x="84.446875" y="14.798438" width="892.8" height="489.24"/>
  </clipPath>
 </defs>
</svg>
