<?xml version="1.0" encoding="utf-8" standalone="no"?>
<!DOCTYPE svg PUBLIC "-//W3C//DTD SVG 1.1//EN"
  "http://www.w3.org/Graphics/SVG/1.1/DTD/svg11.dtd">
<svg xmlns:xlink="http://www.w3.org/1999/xlink" width="1013.028125pt" height="565.79pt" viewBox="0 0 1013.028125 565.79" xmlns="http://www.w3.org/2000/svg" version="1.1">
 <metadata>
  <rdf:RDF xmlns:dc="http://purl.org/dc/elements/1.1/" xmlns:cc="http://creativecommons.org/ns#" xmlns:rdf="http://www.w3.org/1999/02/22-rdf-syntax-ns#">
   <cc:Work>
    <dc:type rdf:resource="http://purl.org/dc/dcmitype/StillImage"/>
    <dc:date>2022-10-23T02:39:57.127543</dc:date>
    <dc:format>image/svg+xml</dc:format>
    <dc:creator>
     <cc:Agent>
      <dc:title>Matplotlib v3.5.1, https://matplotlib.org/</dc:title>
     </cc:Agent>
    </dc:creator>
   </cc:Work>
  </rdf:RDF>
 </metadata>
 <defs>
  <style type="text/css">*{stroke-linejoin: round; stroke-linecap: butt}</style>
 </defs>
 <g id="figure_1">
  <g id="patch_1">
   <path d="M 0 565.79 
L 1013.028125 565.79 
L 1013.028125 0 
L 0 0 
z
" style="fill: #ffffff"/>
  </g>
  <g id="axes_1">
   <g id="patch_2">
    <path d="M 99.1125 504.038438 
L 991.9125 504.038438 
L 991.9125 14.798438 
L 99.1125 14.798438 
z
" style="fill: #ffffff"/>
   </g>
   <g id="matplotlib.axis_1">
    <g id="xtick_1">
     <g id="line2d_1">
      <path d="M 99.1125 504.038438 
L 99.1125 14.798438 
" clip-path="url(#p40227c55d2)" style="fill: none; stroke-dasharray: 2.96,1.28; stroke-dashoffset: 0; stroke: #808080; stroke-width: 0.8"/>
     </g>
     <g id="line2d_2">
      <defs>
       <path id="m84c086e8a8" d="M 0 0 
L 0 3.5 
" style="stroke: #000000; stroke-width: 0.8"/>
      </defs>
      <g>
       <use xlink:href="#m84c086e8a8" x="99.1125" y="504.038438" style="stroke: #000000; stroke-width: 0.8"/>
      </g>
     </g>
     <g id="text_1">
      <!-- 0 -->
      <g transform="translate(92.154688 526.235313)scale(0.2 -0.2)">
       <defs>
        <path id="DejaVuSans-Bold-30" d="M 2944 2338 
Q 2944 3213 2780 3570 
Q 2616 3928 2228 3928 
Q 1841 3928 1675 3570 
Q 1509 3213 1509 2338 
Q 1509 1453 1675 1090 
Q 1841 728 2228 728 
Q 2613 728 2778 1090 
Q 2944 1453 2944 2338 
z
M 4147 2328 
Q 4147 1169 3647 539 
Q 3147 -91 2228 -91 
Q 1306 -91 806 539 
Q 306 1169 306 2328 
Q 306 3491 806 4120 
Q 1306 4750 2228 4750 
Q 3147 4750 3647 4120 
Q 4147 3491 4147 2328 
z
" transform="scale(0.015625)"/>
       </defs>
       <use xlink:href="#DejaVuSans-Bold-30"/>
      </g>
     </g>
    </g>
    <g id="xtick_2">
     <g id="line2d_3">
      <path d="M 277.6725 504.038438 
L 277.6725 14.798438 
" clip-path="url(#p40227c55d2)" style="fill: none; stroke-dasharray: 2.96,1.28; stroke-dashoffset: 0; stroke: #808080; stroke-width: 0.8"/>
     </g>
     <g id="line2d_4">
      <g>
       <use xlink:href="#m84c086e8a8" x="277.6725" y="504.038438" style="stroke: #000000; stroke-width: 0.8"/>
      </g>
     </g>
     <g id="text_2">
      <!-- 5 -->
      <g transform="translate(270.714688 526.235313)scale(0.2 -0.2)">
       <defs>
        <path id="DejaVuSans-Bold-35" d="M 678 4666 
L 3669 4666 
L 3669 3781 
L 1638 3781 
L 1638 3059 
Q 1775 3097 1914 3117 
Q 2053 3138 2203 3138 
Q 3056 3138 3531 2711 
Q 4006 2284 4006 1522 
Q 4006 766 3489 337 
Q 2972 -91 2053 -91 
Q 1656 -91 1267 -14 
Q 878 63 494 219 
L 494 1166 
Q 875 947 1217 837 
Q 1559 728 1863 728 
Q 2300 728 2551 942 
Q 2803 1156 2803 1522 
Q 2803 1891 2551 2103 
Q 2300 2316 1863 2316 
Q 1603 2316 1309 2248 
Q 1016 2181 678 2041 
L 678 4666 
z
" transform="scale(0.015625)"/>
       </defs>
       <use xlink:href="#DejaVuSans-Bold-35"/>
      </g>
     </g>
    </g>
    <g id="xtick_3">
     <g id="line2d_5">
      <path d="M 456.2325 504.038438 
L 456.2325 14.798438 
" clip-path="url(#p40227c55d2)" style="fill: none; stroke-dasharray: 2.96,1.28; stroke-dashoffset: 0; stroke: #808080; stroke-width: 0.8"/>
     </g>
     <g id="line2d_6">
      <g>
       <use xlink:href="#m84c086e8a8" x="456.2325" y="504.038438" style="stroke: #000000; stroke-width: 0.8"/>
      </g>
     </g>
     <g id="text_3">
      <!-- 10 -->
      <g transform="translate(442.316875 526.235313)scale(0.2 -0.2)">
       <defs>
        <path id="DejaVuSans-Bold-31" d="M 750 831 
L 1813 831 
L 1813 3847 
L 722 3622 
L 722 4441 
L 1806 4666 
L 2950 4666 
L 2950 831 
L 4013 831 
L 4013 0 
L 750 0 
L 750 831 
z
" transform="scale(0.015625)"/>
       </defs>
       <use xlink:href="#DejaVuSans-Bold-31"/>
       <use xlink:href="#DejaVuSans-Bold-30" x="69.580078"/>
      </g>
     </g>
    </g>
    <g id="xtick_4">
     <g id="line2d_7">
      <path d="M 634.7925 504.038438 
L 634.7925 14.798438 
" clip-path="url(#p40227c55d2)" style="fill: none; stroke-dasharray: 2.96,1.28; stroke-dashoffset: 0; stroke: #808080; stroke-width: 0.8"/>
     </g>
     <g id="line2d_8">
      <g>
       <use xlink:href="#m84c086e8a8" x="634.7925" y="504.038438" style="stroke: #000000; stroke-width: 0.8"/>
      </g>
     </g>
     <g id="text_4">
      <!-- 15 -->
      <g transform="translate(620.876875 526.235313)scale(0.2 -0.2)">
       <use xlink:href="#DejaVuSans-Bold-31"/>
       <use xlink:href="#DejaVuSans-Bold-35" x="69.580078"/>
      </g>
     </g>
    </g>
    <g id="xtick_5">
     <g id="line2d_9">
      <path d="M 813.3525 504.038438 
L 813.3525 14.798438 
" clip-path="url(#p40227c55d2)" style="fill: none; stroke-dasharray: 2.96,1.28; stroke-dashoffset: 0; stroke: #808080; stroke-width: 0.8"/>
     </g>
     <g id="line2d_10">
      <g>
       <use xlink:href="#m84c086e8a8" x="813.3525" y="504.038438" style="stroke: #000000; stroke-width: 0.8"/>
      </g>
     </g>
     <g id="text_5">
      <!-- 20 -->
      <g transform="translate(799.436875 526.235313)scale(0.2 -0.2)">
       <defs>
        <path id="DejaVuSans-Bold-32" d="M 1844 884 
L 3897 884 
L 3897 0 
L 506 0 
L 506 884 
L 2209 2388 
Q 2438 2594 2547 2791 
Q 2656 2988 2656 3200 
Q 2656 3528 2436 3728 
Q 2216 3928 1850 3928 
Q 1569 3928 1234 3808 
Q 900 3688 519 3450 
L 519 4475 
Q 925 4609 1322 4679 
Q 1719 4750 2100 4750 
Q 2938 4750 3402 4381 
Q 3866 4013 3866 3353 
Q 3866 2972 3669 2642 
Q 3472 2313 2841 1759 
L 1844 884 
z
" transform="scale(0.015625)"/>
       </defs>
       <use xlink:href="#DejaVuSans-Bold-32"/>
       <use xlink:href="#DejaVuSans-Bold-30" x="69.580078"/>
      </g>
     </g>
    </g>
    <g id="xtick_6">
     <g id="line2d_11">
      <path d="M 991.9125 504.038438 
L 991.9125 14.798438 
" clip-path="url(#p40227c55d2)" style="fill: none; stroke-dasharray: 2.96,1.28; stroke-dashoffset: 0; stroke: #808080; stroke-width: 0.8"/>
     </g>
     <g id="line2d_12">
      <g>
       <use xlink:href="#m84c086e8a8" x="991.9125" y="504.038438" style="stroke: #000000; stroke-width: 0.8"/>
      </g>
     </g>
     <g id="text_6">
      <!-- 25 -->
      <g transform="translate(977.996875 526.235313)scale(0.2 -0.2)">
       <use xlink:href="#DejaVuSans-Bold-32"/>
       <use xlink:href="#DejaVuSans-Bold-35" x="69.580078"/>
      </g>
     </g>
    </g>
    <g id="text_7">
     <!-- $Distancia[mm]$ -->
     <g transform="translate(442.3875 553.390781)scale(0.25 -0.25)">
      <defs>
       <path id="DejaVuSans-BoldOblique-44" d="M 2075 3756 
L 1516 909 
L 1947 909 
Q 2788 909 3278 1381 
Q 3769 1853 3769 2656 
Q 3769 3200 3448 3478 
Q 3128 3756 2497 3756 
L 2075 3756 
z
M 1044 4666 
L 2309 4666 
Q 3216 4666 3669 4558 
Q 4122 4450 4422 4197 
Q 4725 3944 4878 3583 
Q 5031 3222 5031 2766 
Q 5031 2131 4770 1570 
Q 4509 1009 4038 628 
Q 3625 288 3079 144 
Q 2534 0 1403 0 
L 134 0 
L 1044 4666 
z
" transform="scale(0.015625)"/>
       <path id="DejaVuSans-BoldOblique-69" d="M 878 3500 
L 2003 3500 
L 1319 0 
L 197 0 
L 878 3500 
z
M 1141 4863 
L 2266 4863 
L 2088 3950 
L 959 3950 
L 1141 4863 
z
" transform="scale(0.015625)"/>
       <path id="DejaVuSans-BoldOblique-73" d="M 3584 3391 
L 3419 2522 
Q 3091 2678 2766 2759 
Q 2441 2841 2150 2841 
Q 1819 2841 1639 2755 
Q 1459 2669 1459 2509 
Q 1459 2416 1559 2359 
Q 1659 2303 1953 2241 
L 2156 2203 
Q 2834 2059 3106 1832 
Q 3378 1606 3378 1203 
Q 3378 594 2900 251 
Q 2422 -91 1563 -91 
Q 1203 -91 828 -34 
Q 453 22 63 134 
L 231 1013 
Q 534 834 879 743 
Q 1225 653 1588 653 
Q 1941 653 2119 737 
Q 2297 822 2297 984 
Q 2297 1097 2197 1159 
Q 2097 1222 1784 1288 
L 1581 1325 
Q 981 1450 725 1694 
Q 469 1938 469 2369 
Q 469 2953 911 3268 
Q 1353 3584 2175 3584 
Q 2534 3584 2882 3536 
Q 3231 3488 3584 3391 
z
" transform="scale(0.015625)"/>
       <path id="DejaVuSans-BoldOblique-74" d="M 2303 4494 
L 2113 3500 
L 3256 3500 
L 3097 2700 
L 1953 2700 
L 1666 1219 
Q 1653 1169 1648 1134 
Q 1644 1100 1644 1069 
Q 1644 925 1739 862 
Q 1834 800 2059 800 
L 2638 800 
L 2478 0 
L 1538 0 
Q 1031 0 765 212 
Q 500 425 500 825 
Q 500 913 509 1013 
Q 519 1113 538 1216 
L 825 2700 
L 275 2700 
L 428 3500 
L 984 3500 
L 1178 4494 
L 2303 4494 
z
" transform="scale(0.015625)"/>
       <path id="DejaVuSans-BoldOblique-61" d="M 2106 1575 
Q 1688 1575 1473 1445 
Q 1259 1316 1259 1063 
Q 1259 872 1386 762 
Q 1513 653 1734 653 
Q 2078 653 2309 861 
Q 2541 1069 2619 1447 
L 2644 1575 
L 2106 1575 
z
M 3853 1997 
L 3463 0 
L 2344 0 
L 2438 519 
Q 2163 206 1856 57 
Q 1550 -91 1191 -91 
Q 694 -91 401 167 
Q 109 425 109 863 
Q 109 1531 626 1886 
Q 1144 2241 2119 2241 
L 2778 2241 
L 2791 2328 
Q 2800 2372 2801 2390 
Q 2803 2409 2803 2425 
Q 2803 2631 2608 2736 
Q 2413 2841 2028 2841 
Q 1681 2841 1356 2769 
Q 1031 2697 728 2553 
L 897 3406 
Q 1247 3494 1614 3539 
Q 1981 3584 2375 3584 
Q 3153 3584 3531 3317 
Q 3909 3050 3909 2503 
Q 3909 2397 3895 2270 
Q 3881 2144 3853 1997 
z
" transform="scale(0.015625)"/>
       <path id="DejaVuSans-BoldOblique-6e" d="M 4128 2131 
L 3713 0 
L 2591 0 
L 2944 1825 
Q 2981 2003 3001 2126 
Q 3022 2250 3022 2322 
Q 3022 2522 2911 2631 
Q 2800 2741 2597 2741 
Q 2250 2741 2001 2470 
Q 1753 2200 1656 1722 
L 1319 0 
L 197 0 
L 878 3500 
L 2003 3500 
L 1900 2988 
Q 2209 3291 2521 3437 
Q 2834 3584 3175 3584 
Q 3659 3584 3921 3331 
Q 4184 3078 4184 2619 
Q 4184 2519 4170 2397 
Q 4156 2275 4128 2131 
z
" transform="scale(0.015625)"/>
       <path id="DejaVuSans-BoldOblique-63" d="M 3719 3391 
L 3541 2478 
Q 3316 2628 3097 2706 
Q 2878 2784 2669 2784 
Q 2122 2784 1775 2417 
Q 1428 2050 1428 1478 
Q 1428 1113 1643 911 
Q 1859 709 2253 709 
Q 2516 709 2769 787 
Q 3022 866 3250 1019 
L 3078 103 
Q 2800 6 2519 -42 
Q 2238 -91 1953 -91 
Q 1128 -91 683 279 
Q 238 650 238 1331 
Q 238 1759 402 2162 
Q 566 2566 872 2888 
Q 1213 3241 1653 3412 
Q 2094 3584 2669 3584 
Q 2934 3584 3196 3536 
Q 3459 3488 3719 3391 
z
" transform="scale(0.015625)"/>
       <path id="DejaVuSans-Bold-5b" d="M 550 4863 
L 2491 4863 
L 2491 4159 
L 1613 4159 
L 1613 -141 
L 2491 -141 
L 2491 -844 
L 550 -844 
L 550 4863 
z
" transform="scale(0.015625)"/>
       <path id="DejaVuSans-BoldOblique-6d" d="M 4013 2919 
Q 4272 3241 4601 3412 
Q 4931 3584 5288 3584 
Q 5756 3584 6026 3326 
Q 6297 3069 6297 2619 
Q 6297 2525 6283 2404 
Q 6269 2284 6241 2131 
L 5825 0 
L 4697 0 
L 5050 1825 
L 5059 1872 
Q 5141 2259 5141 2369 
Q 5141 2541 5042 2641 
Q 4944 2741 4775 2741 
Q 4453 2741 4229 2477 
Q 4006 2213 3909 1722 
L 3572 0 
L 2444 0 
L 2803 1825 
Q 2850 2059 2869 2179 
Q 2888 2300 2888 2369 
Q 2888 2544 2791 2642 
Q 2694 2741 2522 2741 
Q 2213 2741 1980 2467 
Q 1747 2194 1656 1722 
L 1319 0 
L 197 0 
L 878 3500 
L 2003 3500 
L 1900 2988 
Q 2163 3284 2459 3434 
Q 2756 3584 3078 3584 
Q 3441 3584 3700 3398 
Q 3959 3213 4013 2919 
z
" transform="scale(0.015625)"/>
       <path id="DejaVuSans-Bold-5d" d="M 2375 -844 
L 434 -844 
L 434 -141 
L 1313 -141 
L 1313 4159 
L 434 4159 
L 434 4863 
L 2375 4863 
L 2375 -844 
z
" transform="scale(0.015625)"/>
      </defs>
      <use xlink:href="#DejaVuSans-BoldOblique-44" transform="translate(0 0.015625)"/>
      <use xlink:href="#DejaVuSans-BoldOblique-69" transform="translate(83.007812 0.015625)"/>
      <use xlink:href="#DejaVuSans-BoldOblique-73" transform="translate(117.285156 0.015625)"/>
      <use xlink:href="#DejaVuSans-BoldOblique-74" transform="translate(176.806641 0.015625)"/>
      <use xlink:href="#DejaVuSans-BoldOblique-61" transform="translate(224.609375 0.015625)"/>
      <use xlink:href="#DejaVuSans-BoldOblique-6e" transform="translate(292.089844 0.015625)"/>
      <use xlink:href="#DejaVuSans-BoldOblique-63" transform="translate(363.28125 0.015625)"/>
      <use xlink:href="#DejaVuSans-BoldOblique-69" transform="translate(422.558594 0.015625)"/>
      <use xlink:href="#DejaVuSans-BoldOblique-61" transform="translate(456.835938 0.015625)"/>
      <use xlink:href="#DejaVuSans-Bold-5b" transform="translate(524.316406 0.015625)"/>
      <use xlink:href="#DejaVuSans-BoldOblique-6d" transform="translate(570.019531 0.015625)"/>
      <use xlink:href="#DejaVuSans-BoldOblique-6d" transform="translate(674.21875 0.015625)"/>
      <use xlink:href="#DejaVuSans-Bold-5d" transform="translate(778.417969 0.015625)"/>
     </g>
    </g>
   </g>
   <g id="matplotlib.axis_2">
    <g id="ytick_1">
     <g id="line2d_13">
      <path d="M 99.1125 504.038438 
L 991.9125 504.038438 
" clip-path="url(#p40227c55d2)" style="fill: none; stroke-dasharray: 2.96,1.28; stroke-dashoffset: 0; stroke: #808080; stroke-width: 0.8"/>
     </g>
     <g id="line2d_14">
      <defs>
       <path id="m76578ff304" d="M 0 0 
L -3.5 0 
" style="stroke: #000000; stroke-width: 0.8"/>
      </defs>
      <g>
       <use xlink:href="#m76578ff304" x="99.1125" y="504.038438" style="stroke: #000000; stroke-width: 0.8"/>
      </g>
     </g>
     <g id="text_8">
      <!-- 0 -->
      <g transform="translate(78.196875 511.636875)scale(0.2 -0.2)">
       <use xlink:href="#DejaVuSans-Bold-30"/>
      </g>
     </g>
    </g>
    <g id="ytick_2">
     <g id="line2d_15">
      <path d="M 99.1125 442.883438 
L 991.9125 442.883438 
" clip-path="url(#p40227c55d2)" style="fill: none; stroke-dasharray: 2.96,1.28; stroke-dashoffset: 0; stroke: #808080; stroke-width: 0.8"/>
     </g>
     <g id="line2d_16">
      <g>
       <use xlink:href="#m76578ff304" x="99.1125" y="442.883438" style="stroke: #000000; stroke-width: 0.8"/>
      </g>
     </g>
     <g id="text_9">
      <!-- 200 -->
      <g transform="translate(50.365625 450.481875)scale(0.2 -0.2)">
       <use xlink:href="#DejaVuSans-Bold-32"/>
       <use xlink:href="#DejaVuSans-Bold-30" x="69.580078"/>
       <use xlink:href="#DejaVuSans-Bold-30" x="139.160156"/>
      </g>
     </g>
    </g>
    <g id="ytick_3">
     <g id="line2d_17">
      <path d="M 99.1125 381.728438 
L 991.9125 381.728438 
" clip-path="url(#p40227c55d2)" style="fill: none; stroke-dasharray: 2.96,1.28; stroke-dashoffset: 0; stroke: #808080; stroke-width: 0.8"/>
     </g>
     <g id="line2d_18">
      <g>
       <use xlink:href="#m76578ff304" x="99.1125" y="381.728438" style="stroke: #000000; stroke-width: 0.8"/>
      </g>
     </g>
     <g id="text_10">
      <!-- 400 -->
      <g transform="translate(50.365625 389.326875)scale(0.2 -0.2)">
       <defs>
        <path id="DejaVuSans-Bold-34" d="M 2356 3675 
L 1038 1722 
L 2356 1722 
L 2356 3675 
z
M 2156 4666 
L 3494 4666 
L 3494 1722 
L 4159 1722 
L 4159 850 
L 3494 850 
L 3494 0 
L 2356 0 
L 2356 850 
L 288 850 
L 288 1881 
L 2156 4666 
z
" transform="scale(0.015625)"/>
       </defs>
       <use xlink:href="#DejaVuSans-Bold-34"/>
       <use xlink:href="#DejaVuSans-Bold-30" x="69.580078"/>
       <use xlink:href="#DejaVuSans-Bold-30" x="139.160156"/>
      </g>
     </g>
    </g>
    <g id="ytick_4">
     <g id="line2d_19">
      <path d="M 99.1125 320.573438 
L 991.9125 320.573438 
" clip-path="url(#p40227c55d2)" style="fill: none; stroke-dasharray: 2.96,1.28; stroke-dashoffset: 0; stroke: #808080; stroke-width: 0.8"/>
     </g>
     <g id="line2d_20">
      <g>
       <use xlink:href="#m76578ff304" x="99.1125" y="320.573438" style="stroke: #000000; stroke-width: 0.8"/>
      </g>
     </g>
     <g id="text_11">
      <!-- 600 -->
      <g transform="translate(50.365625 328.171875)scale(0.2 -0.2)">
       <defs>
        <path id="DejaVuSans-Bold-36" d="M 2316 2303 
Q 2000 2303 1842 2098 
Q 1684 1894 1684 1484 
Q 1684 1075 1842 870 
Q 2000 666 2316 666 
Q 2634 666 2792 870 
Q 2950 1075 2950 1484 
Q 2950 1894 2792 2098 
Q 2634 2303 2316 2303 
z
M 3803 4544 
L 3803 3681 
Q 3506 3822 3243 3889 
Q 2981 3956 2731 3956 
Q 2194 3956 1894 3657 
Q 1594 3359 1544 2772 
Q 1750 2925 1990 3001 
Q 2231 3078 2516 3078 
Q 3231 3078 3670 2659 
Q 4109 2241 4109 1563 
Q 4109 813 3618 361 
Q 3128 -91 2303 -91 
Q 1394 -91 895 523 
Q 397 1138 397 2266 
Q 397 3422 980 4083 
Q 1563 4744 2578 4744 
Q 2900 4744 3203 4694 
Q 3506 4644 3803 4544 
z
" transform="scale(0.015625)"/>
       </defs>
       <use xlink:href="#DejaVuSans-Bold-36"/>
       <use xlink:href="#DejaVuSans-Bold-30" x="69.580078"/>
       <use xlink:href="#DejaVuSans-Bold-30" x="139.160156"/>
      </g>
     </g>
    </g>
    <g id="ytick_5">
     <g id="line2d_21">
      <path d="M 99.1125 259.418438 
L 991.9125 259.418438 
" clip-path="url(#p40227c55d2)" style="fill: none; stroke-dasharray: 2.96,1.28; stroke-dashoffset: 0; stroke: #808080; stroke-width: 0.8"/>
     </g>
     <g id="line2d_22">
      <g>
       <use xlink:href="#m76578ff304" x="99.1125" y="259.418438" style="stroke: #000000; stroke-width: 0.8"/>
      </g>
     </g>
     <g id="text_12">
      <!-- 800 -->
      <g transform="translate(50.365625 267.016875)scale(0.2 -0.2)">
       <defs>
        <path id="DejaVuSans-Bold-38" d="M 2228 2088 
Q 1891 2088 1709 1903 
Q 1528 1719 1528 1375 
Q 1528 1031 1709 848 
Q 1891 666 2228 666 
Q 2563 666 2741 848 
Q 2919 1031 2919 1375 
Q 2919 1722 2741 1905 
Q 2563 2088 2228 2088 
z
M 1350 2484 
Q 925 2613 709 2878 
Q 494 3144 494 3541 
Q 494 4131 934 4440 
Q 1375 4750 2228 4750 
Q 3075 4750 3515 4442 
Q 3956 4134 3956 3541 
Q 3956 3144 3739 2878 
Q 3522 2613 3097 2484 
Q 3572 2353 3814 2058 
Q 4056 1763 4056 1313 
Q 4056 619 3595 264 
Q 3134 -91 2228 -91 
Q 1319 -91 855 264 
Q 391 619 391 1313 
Q 391 1763 633 2058 
Q 875 2353 1350 2484 
z
M 1631 3419 
Q 1631 3141 1786 2991 
Q 1941 2841 2228 2841 
Q 2509 2841 2662 2991 
Q 2816 3141 2816 3419 
Q 2816 3697 2662 3845 
Q 2509 3994 2228 3994 
Q 1941 3994 1786 3844 
Q 1631 3694 1631 3419 
z
" transform="scale(0.015625)"/>
       </defs>
       <use xlink:href="#DejaVuSans-Bold-38"/>
       <use xlink:href="#DejaVuSans-Bold-30" x="69.580078"/>
       <use xlink:href="#DejaVuSans-Bold-30" x="139.160156"/>
      </g>
     </g>
    </g>
    <g id="ytick_6">
     <g id="line2d_23">
      <path d="M 99.1125 198.263438 
L 991.9125 198.263438 
" clip-path="url(#p40227c55d2)" style="fill: none; stroke-dasharray: 2.96,1.28; stroke-dashoffset: 0; stroke: #808080; stroke-width: 0.8"/>
     </g>
     <g id="line2d_24">
      <g>
       <use xlink:href="#m76578ff304" x="99.1125" y="198.263438" style="stroke: #000000; stroke-width: 0.8"/>
      </g>
     </g>
     <g id="text_13">
      <!-- 1000 -->
      <g transform="translate(36.45 205.861875)scale(0.2 -0.2)">
       <use xlink:href="#DejaVuSans-Bold-31"/>
       <use xlink:href="#DejaVuSans-Bold-30" x="69.580078"/>
       <use xlink:href="#DejaVuSans-Bold-30" x="139.160156"/>
       <use xlink:href="#DejaVuSans-Bold-30" x="208.740234"/>
      </g>
     </g>
    </g>
    <g id="ytick_7">
     <g id="line2d_25">
      <path d="M 99.1125 137.108438 
L 991.9125 137.108438 
" clip-path="url(#p40227c55d2)" style="fill: none; stroke-dasharray: 2.96,1.28; stroke-dashoffset: 0; stroke: #808080; stroke-width: 0.8"/>
     </g>
     <g id="line2d_26">
      <g>
       <use xlink:href="#m76578ff304" x="99.1125" y="137.108438" style="stroke: #000000; stroke-width: 0.8"/>
      </g>
     </g>
     <g id="text_14">
      <!-- 1200 -->
      <g transform="translate(36.45 144.706875)scale(0.2 -0.2)">
       <use xlink:href="#DejaVuSans-Bold-31"/>
       <use xlink:href="#DejaVuSans-Bold-32" x="69.580078"/>
       <use xlink:href="#DejaVuSans-Bold-30" x="139.160156"/>
       <use xlink:href="#DejaVuSans-Bold-30" x="208.740234"/>
      </g>
     </g>
    </g>
    <g id="ytick_8">
     <g id="line2d_27">
      <path d="M 99.1125 75.953438 
L 991.9125 75.953438 
" clip-path="url(#p40227c55d2)" style="fill: none; stroke-dasharray: 2.96,1.28; stroke-dashoffset: 0; stroke: #808080; stroke-width: 0.8"/>
     </g>
     <g id="line2d_28">
      <g>
       <use xlink:href="#m76578ff304" x="99.1125" y="75.953438" style="stroke: #000000; stroke-width: 0.8"/>
      </g>
     </g>
     <g id="text_15">
      <!-- 1400 -->
      <g transform="translate(36.45 83.551875)scale(0.2 -0.2)">
       <use xlink:href="#DejaVuSans-Bold-31"/>
       <use xlink:href="#DejaVuSans-Bold-34" x="69.580078"/>
       <use xlink:href="#DejaVuSans-Bold-30" x="139.160156"/>
       <use xlink:href="#DejaVuSans-Bold-30" x="208.740234"/>
      </g>
     </g>
    </g>
    <g id="ytick_9">
     <g id="line2d_29">
      <path d="M 99.1125 14.798438 
L 991.9125 14.798438 
" clip-path="url(#p40227c55d2)" style="fill: none; stroke-dasharray: 2.96,1.28; stroke-dashoffset: 0; stroke: #808080; stroke-width: 0.8"/>
     </g>
     <g id="line2d_30">
      <g>
       <use xlink:href="#m76578ff304" x="99.1125" y="14.798438" style="stroke: #000000; stroke-width: 0.8"/>
      </g>
     </g>
     <g id="text_16">
      <!-- 1600 -->
      <g transform="translate(36.45 22.396875)scale(0.2 -0.2)">
       <use xlink:href="#DejaVuSans-Bold-31"/>
       <use xlink:href="#DejaVuSans-Bold-36" x="69.580078"/>
       <use xlink:href="#DejaVuSans-Bold-30" x="139.160156"/>
       <use xlink:href="#DejaVuSans-Bold-30" x="208.740234"/>
      </g>
     </g>
    </g>
    <g id="ytick_10">
     <g id="line2d_31">
      <path d="M 99.1125 473.460938 
L 991.9125 473.460938 
" clip-path="url(#p40227c55d2)" style="fill: none; stroke-dasharray: 2.96,1.28; stroke-dashoffset: 0; stroke: #808080; stroke-width: 0.8"/>
     </g>
     <g id="line2d_32">
      <defs>
       <path id="me3739e4782" d="M 0 0 
L -2 0 
" style="stroke: #000000; stroke-width: 0.6"/>
      </defs>
      <g>
       <use xlink:href="#me3739e4782" x="99.1125" y="473.460938" style="stroke: #000000; stroke-width: 0.6"/>
      </g>
     </g>
    </g>
    <g id="ytick_11">
     <g id="line2d_33">
      <path d="M 99.1125 412.305938 
L 991.9125 412.305938 
" clip-path="url(#p40227c55d2)" style="fill: none; stroke-dasharray: 2.96,1.28; stroke-dashoffset: 0; stroke: #808080; stroke-width: 0.8"/>
     </g>
     <g id="line2d_34">
      <g>
       <use xlink:href="#me3739e4782" x="99.1125" y="412.305938" style="stroke: #000000; stroke-width: 0.6"/>
      </g>
     </g>
    </g>
    <g id="ytick_12">
     <g id="line2d_35">
      <path d="M 99.1125 351.150938 
L 991.9125 351.150938 
" clip-path="url(#p40227c55d2)" style="fill: none; stroke-dasharray: 2.96,1.28; stroke-dashoffset: 0; stroke: #808080; stroke-width: 0.8"/>
     </g>
     <g id="line2d_36">
      <g>
       <use xlink:href="#me3739e4782" x="99.1125" y="351.150938" style="stroke: #000000; stroke-width: 0.6"/>
      </g>
     </g>
    </g>
    <g id="ytick_13">
     <g id="line2d_37">
      <path d="M 99.1125 289.995938 
L 991.9125 289.995938 
" clip-path="url(#p40227c55d2)" style="fill: none; stroke-dasharray: 2.96,1.28; stroke-dashoffset: 0; stroke: #808080; stroke-width: 0.8"/>
     </g>
     <g id="line2d_38">
      <g>
       <use xlink:href="#me3739e4782" x="99.1125" y="289.995938" style="stroke: #000000; stroke-width: 0.6"/>
      </g>
     </g>
    </g>
    <g id="ytick_14">
     <g id="line2d_39">
      <path d="M 99.1125 228.840938 
L 991.9125 228.840938 
" clip-path="url(#p40227c55d2)" style="fill: none; stroke-dasharray: 2.96,1.28; stroke-dashoffset: 0; stroke: #808080; stroke-width: 0.8"/>
     </g>
     <g id="line2d_40">
      <g>
       <use xlink:href="#me3739e4782" x="99.1125" y="228.840938" style="stroke: #000000; stroke-width: 0.6"/>
      </g>
     </g>
    </g>
    <g id="ytick_15">
     <g id="line2d_41">
      <path d="M 99.1125 167.685938 
L 991.9125 167.685938 
" clip-path="url(#p40227c55d2)" style="fill: none; stroke-dasharray: 2.96,1.28; stroke-dashoffset: 0; stroke: #808080; stroke-width: 0.8"/>
     </g>
     <g id="line2d_42">
      <g>
       <use xlink:href="#me3739e4782" x="99.1125" y="167.685938" style="stroke: #000000; stroke-width: 0.6"/>
      </g>
     </g>
    </g>
    <g id="ytick_16">
     <g id="line2d_43">
      <path d="M 99.1125 106.530938 
L 991.9125 106.530938 
" clip-path="url(#p40227c55d2)" style="fill: none; stroke-dasharray: 2.96,1.28; stroke-dashoffset: 0; stroke: #808080; stroke-width: 0.8"/>
     </g>
     <g id="line2d_44">
      <g>
       <use xlink:href="#me3739e4782" x="99.1125" y="106.530938" style="stroke: #000000; stroke-width: 0.6"/>
      </g>
     </g>
    </g>
    <g id="ytick_17">
     <g id="line2d_45">
      <path d="M 99.1125 45.375938 
L 991.9125 45.375938 
" clip-path="url(#p40227c55d2)" style="fill: none; stroke-dasharray: 2.96,1.28; stroke-dashoffset: 0; stroke: #808080; stroke-width: 0.8"/>
     </g>
     <g id="line2d_46">
      <g>
       <use xlink:href="#me3739e4782" x="99.1125" y="45.375938" style="stroke: #000000; stroke-width: 0.6"/>
      </g>
     </g>
    </g>
    <g id="text_17">
     <!-- $Campo\ Eléctrico[V/m]$ -->
     <g transform="translate(27.2 411.793438)rotate(-90)scale(0.25 -0.25)">
      <defs>
       <path id="DejaVuSans-BoldOblique-43" d="M 3878 219 
Q 3447 66 3050 -12 
Q 2653 -91 2297 -91 
Q 1356 -91 793 425 
Q 231 941 231 1791 
Q 231 2350 409 2845 
Q 588 3341 934 3750 
Q 1344 4231 1920 4490 
Q 2497 4750 3163 4750 
Q 3525 4750 3890 4664 
Q 4256 4578 4634 4403 
L 4441 3438 
Q 4141 3666 3837 3772 
Q 3534 3878 3188 3878 
Q 2466 3878 1978 3322 
Q 1491 2766 1491 1931 
Q 1491 1394 1791 1087 
Q 2091 781 2619 781 
Q 2934 781 3289 895 
Q 3644 1009 4084 1253 
L 3878 219 
z
" transform="scale(0.015625)"/>
       <path id="DejaVuSans-BoldOblique-70" d="M 1422 506 
L 1063 -1331 
L -63 -1331 
L 878 3500 
L 2003 3500 
L 1900 2988 
Q 2156 3294 2437 3439 
Q 2719 3584 3053 3584 
Q 3644 3584 3987 3209 
Q 4331 2834 4331 2188 
Q 4331 1784 4211 1403 
Q 4091 1022 3866 709 
Q 3581 316 3223 112 
Q 2866 -91 2456 -91 
Q 2097 -91 1845 54 
Q 1594 200 1422 506 
z
M 2597 2772 
Q 2166 2772 1892 2373 
Q 1619 1975 1619 1338 
Q 1619 1050 1773 886 
Q 1928 722 2203 722 
Q 2625 722 2900 1114 
Q 3175 1506 3175 2119 
Q 3175 2438 3026 2605 
Q 2878 2772 2597 2772 
z
" transform="scale(0.015625)"/>
       <path id="DejaVuSans-BoldOblique-6f" d="M 2400 2784 
Q 1966 2784 1684 2390 
Q 1403 1997 1403 1388 
Q 1403 1056 1554 882 
Q 1706 709 1997 709 
Q 2431 709 2712 1104 
Q 2994 1500 2994 2113 
Q 2994 2441 2842 2612 
Q 2691 2784 2400 2784 
z
M 2491 3584 
Q 3272 3584 3719 3187 
Q 4166 2791 4166 2106 
Q 4166 1709 4025 1336 
Q 3884 963 3616 653 
Q 3297 284 2862 96 
Q 2428 -91 1894 -91 
Q 1122 -91 676 306 
Q 231 703 231 1388 
Q 231 1781 375 2157 
Q 519 2534 788 2847 
Q 1100 3209 1533 3396 
Q 1966 3584 2491 3584 
z
" transform="scale(0.015625)"/>
       <path id="DejaVuSans-BoldOblique-45" d="M 1044 4666 
L 4288 4666 
L 4109 3756 
L 2069 3756 
L 1900 2888 
L 3822 2888 
L 3641 1978 
L 1722 1978 
L 1516 909 
L 3622 909 
L 3450 0 
L 134 0 
L 1044 4666 
z
" transform="scale(0.015625)"/>
       <path id="DejaVuSans-BoldOblique-6c" d="M 1141 4863 
L 2266 4863 
L 1319 0 
L 197 0 
L 1141 4863 
z
" transform="scale(0.015625)"/>
       <path id="DejaVuSans-BoldOblique-e9" d="M 4025 1619 
L 3988 1441 
L 1369 1441 
Q 1369 1422 1366 1386 
Q 1363 1350 1363 1331 
Q 1363 991 1567 822 
Q 1772 653 2181 653 
Q 2534 653 2926 759 
Q 3319 866 3750 1075 
L 3578 206 
Q 3169 56 2764 -17 
Q 2359 -91 1941 -91 
Q 1122 -91 676 287 
Q 231 666 231 1356 
Q 231 1756 373 2132 
Q 516 2509 788 2822 
Q 1109 3197 1557 3390 
Q 2006 3584 2553 3584 
Q 3263 3584 3680 3206 
Q 4097 2828 4097 2188 
Q 4097 2063 4080 1923 
Q 4063 1784 4025 1619 
z
M 2969 2131 
Q 2978 2172 2983 2214 
Q 2988 2256 2988 2297 
Q 2988 2547 2838 2694 
Q 2688 2841 2431 2841 
Q 2103 2841 1873 2661 
Q 1644 2481 1522 2131 
L 2969 2131 
z
M 3244 5119 
L 4159 5119 
L 2791 3944 
L 2163 3944 
L 3244 5119 
z
" transform="scale(0.015625)"/>
       <path id="DejaVuSans-BoldOblique-72" d="M 3291 2547 
Q 3175 2613 3034 2647 
Q 2894 2681 2731 2681 
Q 2303 2681 2020 2406 
Q 1738 2131 1638 1613 
L 1319 0 
L 197 0 
L 878 3500 
L 2003 3500 
L 1881 2900 
Q 2103 3231 2436 3407 
Q 2769 3584 3175 3584 
Q 3234 3584 3309 3578 
Q 3384 3572 3488 3559 
L 3291 2547 
z
" transform="scale(0.015625)"/>
       <path id="DejaVuSans-BoldOblique-56" d="M 488 4666 
L 1631 4666 
L 2203 1178 
L 4134 4666 
L 5375 4666 
L 2741 0 
L 1306 0 
L 488 4666 
z
" transform="scale(0.015625)"/>
       <path id="DejaVuSans-Bold-2f" d="M 1644 4666 
L 2338 4666 
L 691 -594 
L 0 -594 
L 1644 4666 
z
" transform="scale(0.015625)"/>
      </defs>
      <use xlink:href="#DejaVuSans-BoldOblique-43" transform="translate(0 0.015625)"/>
      <use xlink:href="#DejaVuSans-BoldOblique-61" transform="translate(73.388672 0.015625)"/>
      <use xlink:href="#DejaVuSans-BoldOblique-6d" transform="translate(140.869141 0.015625)"/>
      <use xlink:href="#DejaVuSans-BoldOblique-70" transform="translate(245.068359 0.015625)"/>
      <use xlink:href="#DejaVuSans-BoldOblique-6f" transform="translate(316.650391 0.015625)"/>
      <use xlink:href="#DejaVuSans-BoldOblique-45" transform="translate(420.084288 0.015625)"/>
      <use xlink:href="#DejaVuSans-BoldOblique-6c" transform="translate(488.394835 0.015625)"/>
      <use xlink:href="#DejaVuSans-BoldOblique-e9" transform="translate(522.672179 0.015625)"/>
      <use xlink:href="#DejaVuSans-BoldOblique-63" transform="translate(590.494444 0.015625)"/>
      <use xlink:href="#DejaVuSans-BoldOblique-74" transform="translate(649.771788 0.015625)"/>
      <use xlink:href="#DejaVuSans-BoldOblique-72" transform="translate(697.574522 0.015625)"/>
      <use xlink:href="#DejaVuSans-BoldOblique-69" transform="translate(746.890929 0.015625)"/>
      <use xlink:href="#DejaVuSans-BoldOblique-63" transform="translate(781.168272 0.015625)"/>
      <use xlink:href="#DejaVuSans-BoldOblique-6f" transform="translate(840.445616 0.015625)"/>
      <use xlink:href="#DejaVuSans-Bold-5b" transform="translate(909.146788 0.015625)"/>
      <use xlink:href="#DejaVuSans-BoldOblique-56" transform="translate(954.849913 0.015625)"/>
      <use xlink:href="#DejaVuSans-Bold-2f" transform="translate(1032.242491 0.015625)"/>
      <use xlink:href="#DejaVuSans-BoldOblique-6d" transform="translate(1068.765929 0.015625)"/>
      <use xlink:href="#DejaVuSans-Bold-5d" transform="translate(1172.965147 0.015625)"/>
     </g>
    </g>
   </g>
   <g id="line2d_47">
    <path d="M 99.1125 504.038438 
L 99.291078 501.768534 
L 158.757505 501.616812 
L 278.851114 501.155689 
L 387.783607 500.487069 
L 506.716462 499.194715 
L 565.02213 498.133521 
L 573.50458 497.980293 
L 591.362365 497.571083 
L 626.720781 496.544997 
L 632.524559 496.406185 
L 638.506919 496.185491 
L 649.489459 495.736197 
L 670.472356 494.902443 
L 679.044093 494.529863 
L 685.11574 494.232603 
L 698.419792 493.426258 
L 707.61655 493.080195 
L 714.402508 492.189917 
L 728.063716 491.635972 
L 773.422491 487.289353 
L 784.672896 485.856485 
L 789.494498 485.166029 
L 798.066236 483.703016 
L 812.531042 481.763427 
L 816.281177 481.187174 
L 818.781267 480.529012 
L 828.335184 478.624692 
L 839.496298 476.068661 
L 843.69288 475.055038 
L 852.175326 472.988787 
L 876.640492 465.627883 
L 881.015651 463.974019 
L 892.444634 459.556683 
L 897.712679 458.048113 
L 908.695219 454.011479 
L 914.856153 451.867507 
L 918.249133 449.853586 
L 926.91016 447.219873 
L 938.964164 444.766139 
L 944.589368 442.568795 
L 952.80395 441.241117 
L 957.982707 440.706492 
L 963.340043 440.545083 
L 963.518621 504.038438 
L 965.125822 504.038438 
L 965.304399 96.329507 
L 991.9125 96.347447 
L 991.9125 96.347447 
" clip-path="url(#p40227c55d2)" style="fill: none; stroke: #1f77b4; stroke-width: 1.5; stroke-linecap: square"/>
   </g>
   <g id="line2d_48">
    <path d="M 99.1125 504.038438 
L 991.9125 504.038438 
" clip-path="url(#p40227c55d2)" style="fill: none; stroke: #000000; stroke-width: 2; stroke-linecap: square"/>
   </g>
   <g id="line2d_49">
    <path d="M 99.1125 504.038438 
L 99.1125 14.798438 
" clip-path="url(#p40227c55d2)" style="fill: none; stroke: #000000; stroke-width: 5; stroke-linecap: square"/>
   </g>
   <g id="patch_3">
    <path d="M 99.1125 504.038438 
L 99.1125 14.798438 
" style="fill: none; stroke: #000000; stroke-width: 0.8; stroke-linejoin: miter; stroke-linecap: square"/>
   </g>
   <g id="patch_4">
    <path d="M 991.9125 504.038438 
L 991.9125 14.798438 
" style="fill: none; stroke: #000000; stroke-width: 0.8; stroke-linejoin: miter; stroke-linecap: square"/>
   </g>
   <g id="patch_5">
    <path d="M 99.1125 504.038438 
L 991.9125 504.038438 
" style="fill: none; stroke: #000000; stroke-width: 0.8; stroke-linejoin: miter; stroke-linecap: square"/>
   </g>
   <g id="patch_6">
    <path d="M 99.1125 14.798438 
L 991.9125 14.798438 
" style="fill: none; stroke: #000000; stroke-width: 0.8; stroke-linejoin: miter; stroke-linecap: square"/>
   </g>
   <g id="legend_1">
    <g id="patch_7">
     <path d="M 670.9925 58.378438 
L 981.3125 58.378438 
Q 984.9125 58.378438 984.9125 54.778437 
L 984.9125 29.398438 
Q 984.9125 25.798437 981.3125 25.798437 
L 670.9925 25.798437 
Q 667.3925 25.798437 667.3925 29.398438 
L 667.3925 54.778437 
Q 667.3925 58.378438 670.9925 58.378438 
z
" style="fill: #454545; opacity: 0.5; stroke: #454545; stroke-linejoin: miter"/>
    </g>
    <g id="patch_8">
     <path d="M 668.9925 56.378438 
L 979.3125 56.378438 
Q 982.9125 56.378438 982.9125 52.778437 
L 982.9125 27.398438 
Q 982.9125 23.798437 979.3125 23.798437 
L 668.9925 23.798437 
Q 665.3925 23.798437 665.3925 27.398438 
L 665.3925 52.778437 
Q 665.3925 56.378438 668.9925 56.378438 
z
" style="fill: #e6e6e6; stroke: #cccccc; stroke-linejoin: miter"/>
    </g>
    <g id="line2d_50">
     <path d="M 672.5925 39.098438 
L 690.5925 39.098438 
L 708.5925 39.098438 
" style="fill: none; stroke: #1f77b4; stroke-width: 1.5; stroke-linecap: square"/>
    </g>
    <g id="text_18">
     <!-- $Campo\ Eléctrico:\ E[V/m]$ -->
     <g transform="translate(722.9925 45.398438)scale(0.18 -0.18)">
      <defs>
       <path id="DejaVuSans-Bold-3a" d="M 716 3500 
L 1844 3500 
L 1844 2291 
L 716 2291 
L 716 3500 
z
M 716 1209 
L 1844 1209 
L 1844 0 
L 716 0 
L 716 1209 
z
" transform="scale(0.015625)"/>
      </defs>
      <use xlink:href="#DejaVuSans-BoldOblique-43" transform="translate(0 0.015625)"/>
      <use xlink:href="#DejaVuSans-BoldOblique-61" transform="translate(73.388672 0.015625)"/>
      <use xlink:href="#DejaVuSans-BoldOblique-6d" transform="translate(140.869141 0.015625)"/>
      <use xlink:href="#DejaVuSans-BoldOblique-70" transform="translate(245.068359 0.015625)"/>
      <use xlink:href="#DejaVuSans-BoldOblique-6f" transform="translate(316.650391 0.015625)"/>
      <use xlink:href="#DejaVuSans-BoldOblique-45" transform="translate(420.084288 0.015625)"/>
      <use xlink:href="#DejaVuSans-BoldOblique-6c" transform="translate(488.394835 0.015625)"/>
      <use xlink:href="#DejaVuSans-BoldOblique-e9" transform="translate(522.672179 0.015625)"/>
      <use xlink:href="#DejaVuSans-BoldOblique-63" transform="translate(590.494444 0.015625)"/>
      <use xlink:href="#DejaVuSans-BoldOblique-74" transform="translate(649.771788 0.015625)"/>
      <use xlink:href="#DejaVuSans-BoldOblique-72" transform="translate(697.574522 0.015625)"/>
      <use xlink:href="#DejaVuSans-BoldOblique-69" transform="translate(746.890929 0.015625)"/>
      <use xlink:href="#DejaVuSans-BoldOblique-63" transform="translate(781.168272 0.015625)"/>
      <use xlink:href="#DejaVuSans-BoldOblique-6f" transform="translate(840.445616 0.015625)"/>
      <use xlink:href="#DejaVuSans-Bold-3a" transform="translate(929.986632 0.015625)"/>
      <use xlink:href="#DejaVuSans-BoldOblique-45" transform="translate(1025.549436 0.015625)"/>
      <use xlink:href="#DejaVuSans-Bold-5b" transform="translate(1093.859982 0.015625)"/>
      <use xlink:href="#DejaVuSans-BoldOblique-56" transform="translate(1139.563107 0.015625)"/>
      <use xlink:href="#DejaVuSans-Bold-2f" transform="translate(1216.955686 0.015625)"/>
      <use xlink:href="#DejaVuSans-BoldOblique-6d" transform="translate(1253.479123 0.015625)"/>
      <use xlink:href="#DejaVuSans-Bold-5d" transform="translate(1357.678342 0.015625)"/>
     </g>
    </g>
   </g>
  </g>
 </g>
 <defs>
  <clipPath id="p40227c55d2">
   <rect x="99.1125" y="14.798438" width="892.8" height="489.24"/>
  </clipPath>
 </defs>
</svg>
